<?xml version="1.0" standalone="no"?>
<!DOCTYPE svg PUBLIC "-//W3C//DTD SVG 20010904//EN"
 "http://www.w3.org/TR/2001/REC-SVG-20010904/DTD/svg10.dtd">
<svg version="1.0" xmlns="http://www.w3.org/2000/svg"
 width="256.000000pt" height="256.000000pt" viewBox="0 0 256.000000 256.000000"
 preserveAspectRatio="xMidYMid meet">
<metadata>
Created by potrace 1.11, written by Peter Selinger 2001-2013
</metadata>
<g transform="translate(0.000000,256.000000) scale(0.100000,-0.100000)"
fill="#000000" stroke="none">
<path d="M608 2024 c-303 -64 -539 -307 -597 -614 -12 -68 -8 -239 8 -300 63
-237 206 -415 415 -515 98 -46 183 -67 301 -71 429 -15 785 329 783 758 0 99
-11 148 -39 171 -30 24 -75 22 -103 -6 -21 -22 -23 -30 -21 -131 4 -185 -43
-318 -158 -442 -186 -200 -478 -249 -722 -121 -78 41 -201 164 -242 242 -93
178 -94 393 -1 568 48 91 165 205 258 250 146 72 317 84 460 33 111 -40 132
-42 165 -14 57 49 29 112 -67 151 -135 54 -303 69 -440 41z"/>
<path d="M1650 2024 c-293 -60 -532 -297 -595 -589 -11 -47 -14 -218 -5 -265
14 -78 88 -102 137 -46 23 27 24 33 18 115 -27 360 281 667 639 638 152 -13
265 -66 376 -177 117 -117 168 -231 175 -395 8 -175 -49 -321 -174 -446 -165
-164 -403 -220 -612 -143 -129 47 -188 34 -189 -41 0 -46 23 -70 93 -98 314
-126 677 -30 881 233 74 95 128 207 151 316 15 67 14 230 -1 303 -63 300 -295
533 -594 595 -86 18 -215 18 -300 0z"/>
</g>
</svg>
